M48
;GenerationSoftware,Autodesk,EAGLE,9.4.0*%
;CreationDate,2019-05-27T15:11:16Z*%
FMAT,2
ICI,OFF
METRIC,TZ,000.000
T10C0.254
T9C0.610
T8C0.700
T7C0.800
T6C0.813
T5C1.016
T4C1.397
T3C1.400
T2C2.000
T1C3.302
%
G90
M71
T1
X205740Y149860
X205740Y-48260
X58420Y149860
X7620Y99060
X7620Y2540
X58420Y-48260
T2
X195562Y145951
X139972Y145948
T3
X157267Y146412
X161467Y146412
X165667Y146412
X169867Y146412
X174067Y146412
X178267Y146412
X182467Y146412
X186667Y146412
X190867Y146412
X148867Y140912
X153067Y140912
X157267Y140912
X161467Y140912
X148867Y146412
X169867Y140912
X174067Y140912
X178267Y140912
X182467Y140912
X186667Y140912
X190867Y140912
X165667Y140912
X144667Y140912
X144667Y146412
X153067Y146412
T4
X17780Y13970
X17780Y19050
X17780Y82550
X17780Y87630
T5
X182321Y-42189
X175819Y-42189
X191770Y-36830
X191770Y-39370
X191770Y-41910
X175819Y-46711
X182321Y-46711
T6
X74930Y128270
X74930Y130810
X74930Y133350
X74930Y135890
X74930Y138430
X73660Y39370
X71120Y39370
X58420Y39370
X55880Y39370
X68580Y39370
X66040Y39370
X60960Y39370
X63500Y39370
X55880Y31750
X58420Y31750
X60960Y31750
X63500Y31750
X66040Y31750
X68580Y31750
X71120Y31750
X73660Y31750
X43180Y49530
X40640Y49530
X43180Y57150
X40640Y57150
X40640Y41910
X43180Y41910
X73660Y12700
X71120Y12700
X58420Y12700
X55880Y12700
X68580Y12700
X67310Y118110
X60960Y12700
X63500Y12700
X55880Y5080
X58420Y5080
X60960Y5080
X63500Y5080
X66040Y5080
X68580Y5080
X71120Y5080
X73660Y5080
X96520Y11430
X96520Y8890
X96520Y-3810
X96520Y-6350
X96520Y6350
X96520Y3810
X96520Y-1270
X96520Y1270
X104140Y-6350
X104140Y-3810
X104140Y-1270
X104140Y1270
X104140Y3810
X104140Y6350
X104140Y8890
X104140Y11430
X113030Y54610
X110490Y54610
X97790Y54610
X95250Y54610
X107950Y54610
X105410Y54610
X100330Y54610
X102870Y54610
X66040Y12700
X93980Y93980
X123190Y0
X123190Y-7620
X123190Y15240
X123190Y7620
X123190Y29210
X123190Y21590
X123190Y43180
X123190Y35560
X83820Y59690
X83820Y57150
X81280Y-17780
X81280Y-20320
X125730Y142240
X128270Y142240
X119380Y99060
X119380Y96520
X119380Y76200
X119380Y73660
X105410Y146050
X107950Y146050
X83820Y87630
X83820Y85090
X87630Y146050
X90170Y146050
X121920Y52070
X121920Y49530
X99060Y21590
X101600Y21590
X81280Y11430
X81280Y8890
X78740Y35560
X78740Y33020
X71120Y146050
X73660Y146050
X116840Y-45720
X114300Y-45720
X134620Y-45720
X132080Y-45720
X99060Y-29210
X91440Y-29210
X133350Y-22860
X140970Y-22860
X113030Y-22860
X120650Y-22860
X151130Y-45720
X148590Y-45720
X91440Y-38100
X99060Y-38100
X109220Y110490
X101600Y110490
X163830Y-39370
X166370Y-39370
X166370Y-46990
X163830Y-46990
X76200Y55880
X73660Y55880
X71120Y55880
X68580Y55880
X66040Y55880
X63500Y55880
X60960Y55880
X58420Y55880
X55880Y55880
X53340Y55880
X53340Y63500
X55880Y63500
X66040Y63500
X63500Y63500
X68580Y63500
X71120Y63500
X58420Y63500
X60960Y63500
X73660Y63500
X76200Y63500
X73660Y-21590
X71120Y-21590
X68580Y-21590
X66040Y-21590
X63500Y-21590
X60960Y-21590
X63500Y-13970
X60960Y-13970
X66040Y-13970
X68580Y-13970
X58420Y-21590
X58420Y-13970
X71120Y-13970
X73660Y-13970
X111760Y93980
X109220Y93980
X106680Y93980
X104140Y93980
X101600Y93980
X99060Y93980
X96520Y93980
X101600Y101600
X99060Y101600
X104140Y101600
X106680Y101600
X93980Y101600
X96520Y101600
X109220Y101600
X111760Y101600
X130810Y134620
X130810Y132080
X130810Y129540
X130810Y127000
X130810Y124460
X130810Y121920
X123190Y124460
X123190Y121920
X123190Y127000
X123190Y129540
X130810Y119380
X123190Y119380
X123190Y132080
X123190Y134620
X111760Y71120
X109220Y71120
X106680Y71120
X104140Y71120
X101600Y71120
X99060Y71120
X96520Y71120
X93980Y71120
X101600Y78740
X99060Y78740
X104140Y78740
X106680Y78740
X93980Y78740
X96520Y78740
X109220Y78740
X111760Y78740
X73660Y80010
X71120Y80010
X68580Y80010
X66040Y80010
X63500Y80010
X60960Y80010
X58420Y80010
X55880Y80010
X63500Y87630
X60960Y87630
X66040Y87630
X68580Y87630
X55880Y87630
X58420Y87630
X71120Y87630
X73660Y87630
X109220Y139700
X109220Y137160
X109220Y134620
X109220Y132080
X109220Y129540
X109220Y127000
X109220Y124460
X109220Y121920
X109220Y119380
X109220Y116840
X101600Y116840
X101600Y119380
X101600Y129540
X101600Y127000
X101600Y132080
X101600Y134620
X101600Y121920
X101600Y124460
X101600Y137160
X101600Y139700
X91440Y139700
X91440Y137160
X91440Y134620
X91440Y132080
X91440Y129540
X91440Y127000
X91440Y124460
X91440Y121920
X83820Y129540
X83820Y127000
X83820Y132080
X83820Y134620
X83820Y121920
X83820Y124460
X95250Y46990
X83820Y137160
X83820Y139700
X113030Y46990
X110490Y46990
X107950Y46990
X105410Y46990
X102870Y46990
X67310Y115570
X74930Y115570
X74930Y118110
X74930Y120650
X74930Y123190
X74930Y125730
X100330Y46990
X97790Y46990
X67310Y138430
X67310Y135890
X67310Y123190
X67310Y120650
X67310Y133350
X67310Y130810
X67310Y125730
X67310Y128270
T7
X154940Y40640
X152400Y40640
X149860Y40640
X170180Y40640
X172720Y40640
X175260Y40640
X177800Y40640
X180340Y40640
X182880Y40640
X185420Y40640
X147320Y40640
X187960Y40640
X190500Y40640
X144780Y40640
X193040Y40640
X193040Y35560
X187960Y35560
X185420Y35560
X182880Y35560
X180340Y35560
X177800Y35560
X175260Y35560
X172720Y35560
X170180Y35560
X167640Y35560
X165100Y35560
X162560Y35560
X160020Y35560
X157480Y35560
X154940Y35560
X152400Y35560
X149860Y35560
X147320Y35560
X144780Y35560
X167640Y10160
X165100Y10160
X162560Y10160
X160020Y10160
X157480Y10160
X154940Y10160
X152400Y10160
X149860Y10160
X170180Y10160
X172720Y10160
X175260Y10160
X177800Y10160
X180340Y10160
X182880Y10160
X185420Y10160
X147320Y10160
X187960Y10160
X190500Y10160
X144780Y10160
X193040Y10160
X193040Y5080
X190500Y5080
X187960Y5080
X185420Y5080
X182880Y5080
X180340Y5080
X177800Y5080
X175260Y5080
X172720Y5080
X170180Y5080
X167640Y5080
X165100Y5080
X162560Y5080
X160020Y5080
X157480Y5080
X154940Y5080
X152400Y5080
X149860Y5080
X147320Y5080
X144780Y5080
X190500Y35560
X167640Y106680
X165100Y106680
X162560Y106680
X160020Y106680
X157480Y106680
X154940Y106680
X152400Y106680
X149860Y106680
X170180Y106680
X172720Y106680
X175260Y106680
X177800Y106680
X180340Y106680
X182880Y106680
X185420Y106680
X147320Y106680
X187960Y106680
X190500Y106680
X144780Y106680
X193040Y106680
X193040Y101600
X190500Y101600
X187960Y101600
X185420Y101600
X182880Y101600
X180340Y101600
X177800Y101600
X175260Y101600
X172720Y101600
X170180Y101600
X167640Y101600
X165100Y101600
X162560Y101600
X160020Y101600
X157480Y101600
X154940Y101600
X152400Y101600
X149860Y101600
X147320Y101600
X144780Y101600
X167640Y78740
X165100Y78740
X162560Y78740
X160020Y78740
X157480Y78740
X154940Y78740
X152400Y78740
X149860Y78740
X170180Y78740
X172720Y78740
X175260Y78740
X177800Y78740
X180340Y78740
X182880Y78740
X185420Y78740
X147320Y78740
X187960Y78740
X190500Y78740
X144780Y78740
X193040Y78740
X193040Y73660
X190500Y73660
X187960Y73660
X185420Y73660
X182880Y73660
X180340Y73660
X177800Y73660
X175260Y73660
X172720Y73660
X170180Y73660
X167640Y73660
X165100Y73660
X162560Y73660
X160020Y73660
X157480Y73660
X154940Y73660
X152400Y73660
X149860Y73660
X147320Y73660
X144780Y73660
X167640Y40640
X165100Y40640
X162560Y40640
X160020Y40640
X157480Y40640
T8
X43180Y64770
X40640Y64770
T9
X110490Y106680
X93980Y111760
X177800Y90170
X86360Y62230
X76200Y38100
X184150Y17780
X96520Y13970
X13970Y34290
X87630Y15240
X121920Y81280
X29210Y78740
X78740Y85090
X87630Y44450
X85090Y17780
X87630Y63500
X85090Y-11430
X97790Y17780
X48260Y63500
X124460Y55880
X25400Y54610
X24130Y53340
X15240Y52070
X62230Y-1270
X16510Y49530
X59690Y8890
X57150Y8890
X16510Y48260
X58420Y27940
X43180Y27940
X20320Y49530
X73660Y26670
X49530Y10160
X24130Y52070
X62230Y29210
X45720Y12700
X63500Y77470
X76200Y85090
X15240Y39370
X102870Y63500
X60960Y17780
X36830Y41910
X88900Y64770
X34290Y21590
X22860Y29210
X76200Y17780
X64770Y29210
X44450Y8890
X91440Y53340
X48260Y10160
X17780Y26670
X60960Y119380
X60960Y97790
X22860Y59690
X99060Y119380
X69850Y90170
X43180Y90170
X87630Y115570
X26670Y55880
X58420Y102870
X53340Y99060
X17780Y59690
X16510Y57150
X83820Y118110
X135890Y85090
X130810Y19050
X41910Y96520
X119380Y68580
X134620Y92710
X134620Y25400
X57150Y41910
X68580Y50800
X115570Y10160
X128270Y59690
X57150Y53340
X140970Y90170
X62230Y125730
X63500Y99060
X46990Y82550
X64770Y60960
X64770Y99060
X41910Y72390
X171450Y92710
X152400Y60960
X177800Y24130
X158750Y80010
X95250Y113030
X147320Y90170
X144780Y55880
X149860Y21590
X132080Y72390
X97790Y124460
X80010Y106680
X151130Y91440
X121920Y-1270
X172720Y20320
X147320Y54610
X152400Y24130
X171450Y86360
X95250Y118110
X78740Y109220
X140970Y128270
X175260Y57150
X148590Y26670
X142240Y125730
X133350Y43180
X151130Y22860
X168910Y88900
X180340Y138430
X104140Y43180
X198120Y6350
X157480Y53340
X140970Y116840
X132080Y92710
X130810Y25400
X130810Y95250
X116840Y36830
X147320Y66040
X133350Y80010
X137160Y1270
X130810Y7620
X128270Y53340
X133350Y86360
X129540Y19050
X96520Y31750
X95250Y62230
X83820Y50800
X121920Y44450
X140970Y68580
X111760Y99060
X163830Y62230
X116840Y115570
X138430Y52070
X137160Y123190
X133350Y38100
X160020Y64770
X184150Y43180
X118110Y57150
X158750Y96520
X161290Y128270
X132080Y53340
X149860Y71120
X110490Y88900
X143510Y57150
X154940Y67310
X167640Y134620
X194310Y100330
X191770Y82550
X163830Y130810
X74930Y67310
X95250Y105410
X88900Y111760
X78740Y115570
X96520Y90170
X69850Y66040
X88900Y113030
X97790Y121920
X118110Y82550
X68580Y93980
X93980Y115570
X77470Y107950
X90170Y119380
X167640Y71120
X121920Y27940
X189230Y33020
X71120Y-8890
X156210Y-15240
X179070Y58420
X143510Y-17780
X74930Y21590
X86360Y11430
X153670Y120650
X166370Y53340
X171450Y20320
X190500Y88900
X62230Y7620
X191770Y62230
X162560Y15240
X110490Y62230
X172720Y27940
X179070Y3810
X123190Y38100
X189230Y93980
X193040Y59690
X139700Y-16510
X165100Y53340
X185420Y16510
X186690Y88900
X148590Y38100
X115570Y13970
X146050Y33020
X168910Y27940
X163830Y88900
X139700Y-15240
X185420Y90170
X190500Y58420
X172720Y30480
X181610Y16510
X187960Y55880
X102870Y68580
X157480Y15240
X132080Y33020
X166370Y22860
X129540Y21590
X163830Y90170
X191770Y49530
X73660Y22860
X173990Y58420
X135890Y-13970
X180340Y24130
X162560Y88900
X139700Y124460
X198120Y77470
X181610Y24130
X182880Y91440
X59690Y58420
X62230Y52070
X128270Y27940
X78740Y76200
X181610Y88900
X157480Y59690
X160020Y24130
X35560Y27940
X90170Y-21590
X158750Y54610
X182880Y24130
X182880Y87630
X40640Y34290
X148590Y31750
X118110Y-2540
X182880Y59690
X158750Y22860
X173990Y87630
X49530Y54610
X72390Y22860
X100330Y12700
X153670Y59690
X157480Y22860
X156210Y87630
X80010Y29210
X49530Y77470
X97790Y130810
X148590Y60960
X106680Y16510
X146050Y82550
X104140Y20320
X111760Y7620
X80010Y48260
X72390Y41910
X67310Y44450
X107950Y30480
X80010Y57150
X140970Y55880
X163830Y22860
X158750Y87630
X50800Y48260
X143510Y45720
X115570Y21590
X80010Y55880
X165100Y58420
X162560Y22860
X156210Y91440
X53340Y52070
X163830Y54610
X85090Y55880
X139700Y19050
X93980Y135890
X146050Y83820
X176530Y60960
X138430Y7620
X127000Y15240
X156210Y22860
X172720Y85090
X97790Y110490
X144780Y95250
X172720Y57150
X165100Y20320
X166370Y90170
X72390Y137160
X123190Y137160
X168910Y22860
X167640Y90170
X154940Y-19050
X74930Y59690
X180340Y58420
X25400Y16510
X177800Y58420
X147320Y-13970
X96520Y34290
X87630Y29210
X62230Y50800
X36830Y25400
X29210Y33020
X184150Y88900
X54610Y17780
X20320Y73660
X62230Y35560
X43180Y11430
X31750Y17780
X22860Y62230
X82550Y116840
X74930Y48260
X16510Y71120
X40640Y46990
T10
X12700Y85090
X12700Y16510
M30