G04 EAGLE Gerber RS-274X export*
G75*
%MOMM*%
%FSLAX34Y34*%
%LPD*%
%IN*%
%IPPOS*%
%AMOC8*
5,1,8,0,0,1.08239X$1,22.5*%
G01*
%ADD10C,0.254000*%


D10*
X50800Y0D02*
X558800Y0D01*
X558800Y-508000D01*
X2082800Y-508000D01*
X2082800Y1524000D01*
X558800Y1524000D01*
X558800Y1016000D01*
X50800Y1016000D01*
X50800Y914400D01*
X88900Y914400D01*
X88900Y812800D01*
X139700Y812800D01*
X139700Y774700D01*
X50800Y774700D01*
X50800Y241300D01*
X139700Y241300D01*
X139700Y203200D01*
X88900Y203200D01*
X88900Y101600D01*
X50800Y101600D01*
X50800Y0D01*
X600710Y1498060D02*
X600639Y1496981D01*
X600498Y1495909D01*
X600287Y1494849D01*
X600008Y1493805D01*
X599660Y1492781D01*
X599246Y1491783D01*
X598768Y1490813D01*
X598228Y1489877D01*
X597627Y1488978D01*
X596969Y1488121D01*
X596257Y1487308D01*
X595492Y1486544D01*
X594679Y1485831D01*
X593822Y1485173D01*
X592923Y1484572D01*
X591987Y1484032D01*
X591017Y1483554D01*
X590019Y1483140D01*
X588995Y1482792D01*
X587951Y1482513D01*
X586891Y1482302D01*
X585819Y1482161D01*
X584740Y1482090D01*
X583660Y1482090D01*
X582581Y1482161D01*
X581509Y1482302D01*
X580449Y1482513D01*
X579405Y1482792D01*
X578381Y1483140D01*
X577383Y1483554D01*
X576413Y1484032D01*
X575477Y1484572D01*
X574578Y1485173D01*
X573721Y1485831D01*
X572908Y1486544D01*
X572144Y1487308D01*
X571431Y1488121D01*
X570773Y1488978D01*
X570172Y1489877D01*
X569632Y1490813D01*
X569154Y1491783D01*
X568740Y1492781D01*
X568392Y1493805D01*
X568113Y1494849D01*
X567902Y1495909D01*
X567761Y1496981D01*
X567690Y1498060D01*
X567690Y1499140D01*
X567761Y1500219D01*
X567902Y1501291D01*
X568113Y1502351D01*
X568392Y1503395D01*
X568740Y1504419D01*
X569154Y1505417D01*
X569632Y1506387D01*
X570172Y1507323D01*
X570773Y1508222D01*
X571431Y1509079D01*
X572144Y1509892D01*
X572908Y1510657D01*
X573721Y1511369D01*
X574578Y1512027D01*
X575477Y1512628D01*
X576413Y1513168D01*
X577383Y1513646D01*
X578381Y1514060D01*
X579405Y1514408D01*
X580449Y1514687D01*
X581509Y1514898D01*
X582581Y1515039D01*
X583660Y1515110D01*
X584740Y1515110D01*
X585819Y1515039D01*
X586891Y1514898D01*
X587951Y1514687D01*
X588995Y1514408D01*
X590019Y1514060D01*
X591017Y1513646D01*
X591987Y1513168D01*
X592923Y1512628D01*
X593822Y1512027D01*
X594679Y1511369D01*
X595492Y1510657D01*
X596257Y1509892D01*
X596969Y1509079D01*
X597627Y1508222D01*
X598228Y1507323D01*
X598768Y1506387D01*
X599246Y1505417D01*
X599660Y1504419D01*
X600008Y1503395D01*
X600287Y1502351D01*
X600498Y1501291D01*
X600639Y1500219D01*
X600710Y1499140D01*
X600710Y1498060D01*
X2073910Y-483140D02*
X2073839Y-484219D01*
X2073698Y-485291D01*
X2073487Y-486351D01*
X2073208Y-487395D01*
X2072860Y-488419D01*
X2072446Y-489417D01*
X2071968Y-490387D01*
X2071428Y-491323D01*
X2070827Y-492222D01*
X2070169Y-493079D01*
X2069457Y-493892D01*
X2068692Y-494657D01*
X2067879Y-495369D01*
X2067022Y-496027D01*
X2066123Y-496628D01*
X2065187Y-497168D01*
X2064217Y-497646D01*
X2063219Y-498060D01*
X2062195Y-498408D01*
X2061151Y-498687D01*
X2060091Y-498898D01*
X2059019Y-499039D01*
X2057940Y-499110D01*
X2056860Y-499110D01*
X2055781Y-499039D01*
X2054709Y-498898D01*
X2053649Y-498687D01*
X2052605Y-498408D01*
X2051581Y-498060D01*
X2050583Y-497646D01*
X2049613Y-497168D01*
X2048677Y-496628D01*
X2047778Y-496027D01*
X2046921Y-495369D01*
X2046108Y-494657D01*
X2045344Y-493892D01*
X2044631Y-493079D01*
X2043973Y-492222D01*
X2043372Y-491323D01*
X2042832Y-490387D01*
X2042354Y-489417D01*
X2041940Y-488419D01*
X2041592Y-487395D01*
X2041313Y-486351D01*
X2041102Y-485291D01*
X2040961Y-484219D01*
X2040890Y-483140D01*
X2040890Y-482060D01*
X2040961Y-480981D01*
X2041102Y-479909D01*
X2041313Y-478849D01*
X2041592Y-477805D01*
X2041940Y-476781D01*
X2042354Y-475783D01*
X2042832Y-474813D01*
X2043372Y-473877D01*
X2043973Y-472978D01*
X2044631Y-472121D01*
X2045344Y-471308D01*
X2046108Y-470544D01*
X2046921Y-469831D01*
X2047778Y-469173D01*
X2048677Y-468572D01*
X2049613Y-468032D01*
X2050583Y-467554D01*
X2051581Y-467140D01*
X2052605Y-466792D01*
X2053649Y-466513D01*
X2054709Y-466302D01*
X2055781Y-466161D01*
X2056860Y-466090D01*
X2057940Y-466090D01*
X2059019Y-466161D01*
X2060091Y-466302D01*
X2061151Y-466513D01*
X2062195Y-466792D01*
X2063219Y-467140D01*
X2064217Y-467554D01*
X2065187Y-468032D01*
X2066123Y-468572D01*
X2067022Y-469173D01*
X2067879Y-469831D01*
X2068692Y-470544D01*
X2069457Y-471308D01*
X2070169Y-472121D01*
X2070827Y-472978D01*
X2071428Y-473877D01*
X2071968Y-474813D01*
X2072446Y-475783D01*
X2072860Y-476781D01*
X2073208Y-477805D01*
X2073487Y-478849D01*
X2073698Y-479909D01*
X2073839Y-480981D01*
X2073910Y-482060D01*
X2073910Y-483140D01*
X92710Y990060D02*
X92639Y988981D01*
X92498Y987909D01*
X92287Y986849D01*
X92008Y985805D01*
X91660Y984781D01*
X91246Y983783D01*
X90768Y982813D01*
X90228Y981877D01*
X89627Y980978D01*
X88969Y980121D01*
X88257Y979308D01*
X87492Y978544D01*
X86679Y977831D01*
X85822Y977173D01*
X84923Y976572D01*
X83987Y976032D01*
X83017Y975554D01*
X82019Y975140D01*
X80995Y974792D01*
X79951Y974513D01*
X78891Y974302D01*
X77819Y974161D01*
X76740Y974090D01*
X75660Y974090D01*
X74581Y974161D01*
X73509Y974302D01*
X72449Y974513D01*
X71405Y974792D01*
X70381Y975140D01*
X69383Y975554D01*
X68413Y976032D01*
X67477Y976572D01*
X66578Y977173D01*
X65721Y977831D01*
X64908Y978544D01*
X64144Y979308D01*
X63431Y980121D01*
X62773Y980978D01*
X62172Y981877D01*
X61632Y982813D01*
X61154Y983783D01*
X60740Y984781D01*
X60392Y985805D01*
X60113Y986849D01*
X59902Y987909D01*
X59761Y988981D01*
X59690Y990060D01*
X59690Y991140D01*
X59761Y992219D01*
X59902Y993291D01*
X60113Y994351D01*
X60392Y995395D01*
X60740Y996419D01*
X61154Y997417D01*
X61632Y998387D01*
X62172Y999323D01*
X62773Y1000222D01*
X63431Y1001079D01*
X64144Y1001892D01*
X64908Y1002657D01*
X65721Y1003369D01*
X66578Y1004027D01*
X67477Y1004628D01*
X68413Y1005168D01*
X69383Y1005646D01*
X70381Y1006060D01*
X71405Y1006408D01*
X72449Y1006687D01*
X73509Y1006898D01*
X74581Y1007039D01*
X75660Y1007110D01*
X76740Y1007110D01*
X77819Y1007039D01*
X78891Y1006898D01*
X79951Y1006687D01*
X80995Y1006408D01*
X82019Y1006060D01*
X83017Y1005646D01*
X83987Y1005168D01*
X84923Y1004628D01*
X85822Y1004027D01*
X86679Y1003369D01*
X87492Y1002657D01*
X88257Y1001892D01*
X88969Y1001079D01*
X89627Y1000222D01*
X90228Y999323D01*
X90768Y998387D01*
X91246Y997417D01*
X91660Y996419D01*
X92008Y995395D01*
X92287Y994351D01*
X92498Y993291D01*
X92639Y992219D01*
X92710Y991140D01*
X92710Y990060D01*
X92710Y24860D02*
X92639Y23781D01*
X92498Y22709D01*
X92287Y21649D01*
X92008Y20605D01*
X91660Y19581D01*
X91246Y18583D01*
X90768Y17613D01*
X90228Y16677D01*
X89627Y15778D01*
X88969Y14921D01*
X88257Y14108D01*
X87492Y13344D01*
X86679Y12631D01*
X85822Y11973D01*
X84923Y11372D01*
X83987Y10832D01*
X83017Y10354D01*
X82019Y9940D01*
X80995Y9592D01*
X79951Y9313D01*
X78891Y9102D01*
X77819Y8961D01*
X76740Y8890D01*
X75660Y8890D01*
X74581Y8961D01*
X73509Y9102D01*
X72449Y9313D01*
X71405Y9592D01*
X70381Y9940D01*
X69383Y10354D01*
X68413Y10832D01*
X67477Y11372D01*
X66578Y11973D01*
X65721Y12631D01*
X64908Y13344D01*
X64144Y14108D01*
X63431Y14921D01*
X62773Y15778D01*
X62172Y16677D01*
X61632Y17613D01*
X61154Y18583D01*
X60740Y19581D01*
X60392Y20605D01*
X60113Y21649D01*
X59902Y22709D01*
X59761Y23781D01*
X59690Y24860D01*
X59690Y25940D01*
X59761Y27019D01*
X59902Y28091D01*
X60113Y29151D01*
X60392Y30195D01*
X60740Y31219D01*
X61154Y32217D01*
X61632Y33187D01*
X62172Y34123D01*
X62773Y35022D01*
X63431Y35879D01*
X64144Y36692D01*
X64908Y37457D01*
X65721Y38169D01*
X66578Y38827D01*
X67477Y39428D01*
X68413Y39968D01*
X69383Y40446D01*
X70381Y40860D01*
X71405Y41208D01*
X72449Y41487D01*
X73509Y41698D01*
X74581Y41839D01*
X75660Y41910D01*
X76740Y41910D01*
X77819Y41839D01*
X78891Y41698D01*
X79951Y41487D01*
X80995Y41208D01*
X82019Y40860D01*
X83017Y40446D01*
X83987Y39968D01*
X84923Y39428D01*
X85822Y38827D01*
X86679Y38169D01*
X87492Y37457D01*
X88257Y36692D01*
X88969Y35879D01*
X89627Y35022D01*
X90228Y34123D01*
X90768Y33187D01*
X91246Y32217D01*
X91660Y31219D01*
X92008Y30195D01*
X92287Y29151D01*
X92498Y28091D01*
X92639Y27019D01*
X92710Y25940D01*
X92710Y24860D01*
X600710Y-483140D02*
X600639Y-484219D01*
X600498Y-485291D01*
X600287Y-486351D01*
X600008Y-487395D01*
X599660Y-488419D01*
X599246Y-489417D01*
X598768Y-490387D01*
X598228Y-491323D01*
X597627Y-492222D01*
X596969Y-493079D01*
X596257Y-493892D01*
X595492Y-494657D01*
X594679Y-495369D01*
X593822Y-496027D01*
X592923Y-496628D01*
X591987Y-497168D01*
X591017Y-497646D01*
X590019Y-498060D01*
X588995Y-498408D01*
X587951Y-498687D01*
X586891Y-498898D01*
X585819Y-499039D01*
X584740Y-499110D01*
X583660Y-499110D01*
X582581Y-499039D01*
X581509Y-498898D01*
X580449Y-498687D01*
X579405Y-498408D01*
X578381Y-498060D01*
X577383Y-497646D01*
X576413Y-497168D01*
X575477Y-496628D01*
X574578Y-496027D01*
X573721Y-495369D01*
X572908Y-494657D01*
X572144Y-493892D01*
X571431Y-493079D01*
X570773Y-492222D01*
X570172Y-491323D01*
X569632Y-490387D01*
X569154Y-489417D01*
X568740Y-488419D01*
X568392Y-487395D01*
X568113Y-486351D01*
X567902Y-485291D01*
X567761Y-484219D01*
X567690Y-483140D01*
X567690Y-482060D01*
X567761Y-480981D01*
X567902Y-479909D01*
X568113Y-478849D01*
X568392Y-477805D01*
X568740Y-476781D01*
X569154Y-475783D01*
X569632Y-474813D01*
X570172Y-473877D01*
X570773Y-472978D01*
X571431Y-472121D01*
X572144Y-471308D01*
X572908Y-470544D01*
X573721Y-469831D01*
X574578Y-469173D01*
X575477Y-468572D01*
X576413Y-468032D01*
X577383Y-467554D01*
X578381Y-467140D01*
X579405Y-466792D01*
X580449Y-466513D01*
X581509Y-466302D01*
X582581Y-466161D01*
X583660Y-466090D01*
X584740Y-466090D01*
X585819Y-466161D01*
X586891Y-466302D01*
X587951Y-466513D01*
X588995Y-466792D01*
X590019Y-467140D01*
X591017Y-467554D01*
X591987Y-468032D01*
X592923Y-468572D01*
X593822Y-469173D01*
X594679Y-469831D01*
X595492Y-470544D01*
X596257Y-471308D01*
X596969Y-472121D01*
X597627Y-472978D01*
X598228Y-473877D01*
X598768Y-474813D01*
X599246Y-475783D01*
X599660Y-476781D01*
X600008Y-477805D01*
X600287Y-478849D01*
X600498Y-479909D01*
X600639Y-480981D01*
X600710Y-482060D01*
X600710Y-483140D01*
X2073910Y1498060D02*
X2073839Y1496981D01*
X2073698Y1495909D01*
X2073487Y1494849D01*
X2073208Y1493805D01*
X2072860Y1492781D01*
X2072446Y1491783D01*
X2071968Y1490813D01*
X2071428Y1489877D01*
X2070827Y1488978D01*
X2070169Y1488121D01*
X2069457Y1487308D01*
X2068692Y1486544D01*
X2067879Y1485831D01*
X2067022Y1485173D01*
X2066123Y1484572D01*
X2065187Y1484032D01*
X2064217Y1483554D01*
X2063219Y1483140D01*
X2062195Y1482792D01*
X2061151Y1482513D01*
X2060091Y1482302D01*
X2059019Y1482161D01*
X2057940Y1482090D01*
X2056860Y1482090D01*
X2055781Y1482161D01*
X2054709Y1482302D01*
X2053649Y1482513D01*
X2052605Y1482792D01*
X2051581Y1483140D01*
X2050583Y1483554D01*
X2049613Y1484032D01*
X2048677Y1484572D01*
X2047778Y1485173D01*
X2046921Y1485831D01*
X2046108Y1486544D01*
X2045344Y1487308D01*
X2044631Y1488121D01*
X2043973Y1488978D01*
X2043372Y1489877D01*
X2042832Y1490813D01*
X2042354Y1491783D01*
X2041940Y1492781D01*
X2041592Y1493805D01*
X2041313Y1494849D01*
X2041102Y1495909D01*
X2040961Y1496981D01*
X2040890Y1498060D01*
X2040890Y1499140D01*
X2040961Y1500219D01*
X2041102Y1501291D01*
X2041313Y1502351D01*
X2041592Y1503395D01*
X2041940Y1504419D01*
X2042354Y1505417D01*
X2042832Y1506387D01*
X2043372Y1507323D01*
X2043973Y1508222D01*
X2044631Y1509079D01*
X2045344Y1509892D01*
X2046108Y1510657D01*
X2046921Y1511369D01*
X2047778Y1512027D01*
X2048677Y1512628D01*
X2049613Y1513168D01*
X2050583Y1513646D01*
X2051581Y1514060D01*
X2052605Y1514408D01*
X2053649Y1514687D01*
X2054709Y1514898D01*
X2055781Y1515039D01*
X2056860Y1515110D01*
X2057940Y1515110D01*
X2059019Y1515039D01*
X2060091Y1514898D01*
X2061151Y1514687D01*
X2062195Y1514408D01*
X2063219Y1514060D01*
X2064217Y1513646D01*
X2065187Y1513168D01*
X2066123Y1512628D01*
X2067022Y1512027D01*
X2067879Y1511369D01*
X2068692Y1510657D01*
X2069457Y1509892D01*
X2070169Y1509079D01*
X2070827Y1508222D01*
X2071428Y1507323D01*
X2071968Y1506387D01*
X2072446Y1505417D01*
X2072860Y1504419D01*
X2073208Y1503395D01*
X2073487Y1502351D01*
X2073698Y1501291D01*
X2073839Y1500219D01*
X2073910Y1499140D01*
X2073910Y1498060D01*
M02*
